<?xml version="1.0" encoding="UTF-8" standalone="no"?>
<!DOCTYPE svg PUBLIC "-//W3C//DTD SVG 1.1//EN"
 "http://www.w3.org/Graphics/SVG/1.1/DTD/svg11.dtd">
<!-- Generated by graphviz version 2.38.0 (20140413.2041)
 -->
<!-- Title: controllers_diagram Pages: 1 -->
<svg width="330pt" height="568pt"
 viewBox="0.00 0.00 330.27 568.00" xmlns="http://www.w3.org/2000/svg" xmlns:xlink="http://www.w3.org/1999/xlink">
<g id="graph0" class="graph" transform="scale(1 1) rotate(0) translate(72.3345 343.5)">
<title>controllers_diagram</title>
<polygon fill="none" stroke="none" points="-72.3345,224.5 -72.3345,-343.5 257.935,-343.5 257.935,224.5 -72.3345,224.5"/>
<!-- _diagram_info -->
<g id="node1" class="node"><title>_diagram_info</title>
<text text-anchor="start" x="-59.7202" y="-181.6" font-family="Times,serif" font-size="13.00">Controllers diagram</text>
<text text-anchor="start" x="-59.7202" y="-168.6" font-family="Times,serif" font-size="13.00">Date: Feb 29 2016 &#45; 14:18</text>
<text text-anchor="start" x="-59.7202" y="-155.6" font-family="Times,serif" font-size="13.00">Generated by RailRoady 1.4.2</text>
<text text-anchor="start" x="-59.7202" y="-142.6" font-family="Times,serif" font-size="13.00">http://railroady.prestonlee.com</text>
</g>
<!-- ApplicationController -->
<g id="node2" class="node"><title>ApplicationController</title>
<path fill="none" stroke="black" d="M12.1792,220C12.1792,220 127.821,220 127.821,220 133.821,220 139.821,214 139.821,208 139.821,208 139.821,140 139.821,140 139.821,134 133.821,128 127.821,128 127.821,128 12.1792,128 12.1792,128 6.1792,128 0.179199,134 0.179199,140 0.179199,140 0.179199,208 0.179199,208 0.179199,214 6.1792,220 12.1792,220"/>
<text text-anchor="middle" x="70" y="143.2" font-family="Times,serif" font-size="14.00">ApplicationController</text>
<polyline fill="none" stroke="black" points="0.179199,150 139.821,150 "/>
<polyline fill="none" stroke="black" points="0.179199,174 139.821,174 "/>
<polyline fill="none" stroke="black" points="0.179199,198 139.821,198 "/>
<text text-anchor="start" x="8.1792" y="213.2" font-family="Times,serif" font-size="14.00">_layout</text>
</g>
<!-- MediaController -->
<g id="node3" class="node"><title>MediaController</title>
<path fill="none" stroke="black" d="M114.345,101C114.345,101 199.655,101 199.655,101 205.655,101 211.655,95 211.655,89 211.655,89 211.655,-89 211.655,-89 211.655,-95 205.655,-101 199.655,-101 199.655,-101 114.345,-101 114.345,-101 108.345,-101 102.345,-95 102.345,-89 102.345,-89 102.345,89 102.345,89 102.345,95 108.345,101 114.345,101"/>
<text text-anchor="middle" x="157" y="-85.8" font-family="Times,serif" font-size="14.00">MediaController</text>
<polyline fill="none" stroke="black" points="102.345,-79 211.655,-79 "/>
<text text-anchor="start" x="110.345" y="-63.8" font-family="Times,serif" font-size="14.00">index</text>
<text text-anchor="start" x="110.345" y="-49.8" font-family="Times,serif" font-size="14.00">destroy</text>
<text text-anchor="start" x="110.345" y="-35.8" font-family="Times,serif" font-size="14.00">edit</text>
<text text-anchor="start" x="110.345" y="-21.8" font-family="Times,serif" font-size="14.00">create</text>
<text text-anchor="start" x="110.345" y="-7.8" font-family="Times,serif" font-size="14.00">new</text>
<text text-anchor="start" x="110.345" y="6.2" font-family="Times,serif" font-size="14.00">show</text>
<text text-anchor="start" x="110.345" y="20.2" font-family="Times,serif" font-size="14.00">update</text>
<polyline fill="none" stroke="black" points="102.345,27 211.655,27 "/>
<polyline fill="none" stroke="black" points="102.345,51 211.655,51 "/>
<text text-anchor="start" x="110.345" y="66.2" font-family="Times,serif" font-size="14.00">_layout</text>
<text text-anchor="start" x="110.345" y="80.2" font-family="Times,serif" font-size="14.00">media_params</text>
<text text-anchor="start" x="110.345" y="94.2" font-family="Times,serif" font-size="14.00">set_media</text>
</g>
<!-- SourcesController -->
<g id="node4" class="node"><title>SourcesController</title>
<path fill="none" stroke="black" d="M148.065,-137C148.065,-137 241.935,-137 241.935,-137 247.935,-137 253.935,-143 253.935,-149 253.935,-149 253.935,-327 253.935,-327 253.935,-333 247.935,-339 241.935,-339 241.935,-339 148.065,-339 148.065,-339 142.065,-339 136.065,-333 136.065,-327 136.065,-327 136.065,-149 136.065,-149 136.065,-143 142.065,-137 148.065,-137"/>
<text text-anchor="middle" x="195" y="-323.8" font-family="Times,serif" font-size="14.00">SourcesController</text>
<polyline fill="none" stroke="black" points="136.065,-317 253.935,-317 "/>
<text text-anchor="start" x="144.065" y="-301.8" font-family="Times,serif" font-size="14.00">index</text>
<text text-anchor="start" x="144.065" y="-287.8" font-family="Times,serif" font-size="14.00">destroy</text>
<text text-anchor="start" x="144.065" y="-273.8" font-family="Times,serif" font-size="14.00">edit</text>
<text text-anchor="start" x="144.065" y="-259.8" font-family="Times,serif" font-size="14.00">create</text>
<text text-anchor="start" x="144.065" y="-245.8" font-family="Times,serif" font-size="14.00">new</text>
<text text-anchor="start" x="144.065" y="-231.8" font-family="Times,serif" font-size="14.00">show</text>
<text text-anchor="start" x="144.065" y="-217.8" font-family="Times,serif" font-size="14.00">update</text>
<polyline fill="none" stroke="black" points="136.065,-211 253.935,-211 "/>
<polyline fill="none" stroke="black" points="136.065,-187 253.935,-187 "/>
<text text-anchor="start" x="144.065" y="-171.8" font-family="Times,serif" font-size="14.00">_layout</text>
<text text-anchor="start" x="144.065" y="-157.8" font-family="Times,serif" font-size="14.00">set_source</text>
<text text-anchor="start" x="144.065" y="-143.8" font-family="Times,serif" font-size="14.00">source_params</text>
</g>
<!-- SynonymsController -->
<g id="node5" class="node"><title>SynonymsController</title>
<path fill="none" stroke="black" d="M-56.3345,101C-56.3345,101 52.3345,101 52.3345,101 58.3345,101 64.3345,95 64.3345,89 64.3345,89 64.3345,-89 64.3345,-89 64.3345,-95 58.3345,-101 52.3345,-101 52.3345,-101 -56.3345,-101 -56.3345,-101 -62.3345,-101 -68.3345,-95 -68.3345,-89 -68.3345,-89 -68.3345,89 -68.3345,89 -68.3345,95 -62.3345,101 -56.3345,101"/>
<text text-anchor="middle" x="-2" y="-85.8" font-family="Times,serif" font-size="14.00">SynonymsController</text>
<polyline fill="none" stroke="black" points="-68.3345,-79 64.3345,-79 "/>
<text text-anchor="start" x="-60.3345" y="-63.8" font-family="Times,serif" font-size="14.00">index</text>
<text text-anchor="start" x="-60.3345" y="-49.8" font-family="Times,serif" font-size="14.00">destroy</text>
<text text-anchor="start" x="-60.3345" y="-35.8" font-family="Times,serif" font-size="14.00">edit</text>
<text text-anchor="start" x="-60.3345" y="-21.8" font-family="Times,serif" font-size="14.00">create</text>
<text text-anchor="start" x="-60.3345" y="-7.8" font-family="Times,serif" font-size="14.00">new</text>
<text text-anchor="start" x="-60.3345" y="6.2" font-family="Times,serif" font-size="14.00">show</text>
<text text-anchor="start" x="-60.3345" y="20.2" font-family="Times,serif" font-size="14.00">update</text>
<polyline fill="none" stroke="black" points="-68.3345,27 64.3345,27 "/>
<polyline fill="none" stroke="black" points="-68.3345,51 64.3345,51 "/>
<text text-anchor="start" x="-60.3345" y="66.2" font-family="Times,serif" font-size="14.00">_layout</text>
<text text-anchor="start" x="-60.3345" y="80.2" font-family="Times,serif" font-size="14.00">set_synonym</text>
<text text-anchor="start" x="-60.3345" y="94.2" font-family="Times,serif" font-size="14.00">synonym_params</text>
</g>
</g>
</svg>
