<?xml version="1.0" encoding="UTF-8" standalone="no"?>
<!DOCTYPE svg PUBLIC "-//W3C//DTD SVG 1.1//EN"
 "http://www.w3.org/Graphics/SVG/1.1/DTD/svg11.dtd">
<!-- Generated by graphviz version 2.38.0 (20140413.2041)
 -->
<!-- Title: models_diagram Pages: 1 -->
<svg width="489pt" height="218pt"
 viewBox="0.00 0.00 489.41 218.00" xmlns="http://www.w3.org/2000/svg" xmlns:xlink="http://www.w3.org/1999/xlink">
<g id="graph0" class="graph" transform="scale(1 1) rotate(0) translate(4 214)">
<title>models_diagram</title>
<polygon fill="none" stroke="none" points="-4,4 -4,-214 485.412,-214 485.412,4 -4,4"/>
<!-- _diagram_info -->
<g id="node1" class="node"><title>_diagram_info</title>
<text text-anchor="start" x="8" y="-189.1" font-family="Times,serif" font-size="13.00">Models diagram</text>
<text text-anchor="start" x="8" y="-176.1" font-family="Times,serif" font-size="13.00">Date: Feb 29 2016 &#45; 14:18</text>
<text text-anchor="start" x="8" y="-163.1" font-family="Times,serif" font-size="13.00">Generated by RailRoady 1.4.2</text>
<text text-anchor="start" x="8" y="-150.1" font-family="Times,serif" font-size="13.00">http://railroady.prestonlee.com</text>
</g>
<!-- Media -->
<g id="node2" class="node"><title>Media</title>
<path fill="none" stroke="black" d="M205.029,-137.5C205.029,-137.5 316.412,-137.5 316.412,-137.5 322.412,-137.5 328.412,-143.5 328.412,-149.5 328.412,-149.5 328.412,-197.5 328.412,-197.5 328.412,-203.5 322.412,-209.5 316.412,-209.5 316.412,-209.5 205.029,-209.5 205.029,-209.5 199.029,-209.5 193.029,-203.5 193.029,-197.5 193.029,-197.5 193.029,-149.5 193.029,-149.5 193.029,-143.5 199.029,-137.5 205.029,-137.5"/>
<text text-anchor="middle" x="260.72" y="-194.3" font-family="Times,serif" font-size="14.00">Media</text>
<polyline fill="none" stroke="black" points="193.029,-187.5 328.412,-187.5 "/>
<text text-anchor="start" x="201.029" y="-172.3" font-family="Times,serif" font-size="14.00">_id :BSON::ObjectId</text>
<text text-anchor="start" x="201.029" y="-158.3" font-family="Times,serif" font-size="14.00">name :String</text>
<text text-anchor="start" x="201.029" y="-144.3" font-family="Times,serif" font-size="14.00">type :String</text>
</g>
<!-- Source -->
<g id="node3" class="node"><title>Source</title>
<path fill="none" stroke="black" d="M141.029,-0.5C141.029,-0.5 252.412,-0.5 252.412,-0.5 258.412,-0.5 264.412,-6.5 264.412,-12.5 264.412,-12.5 264.412,-88.5 264.412,-88.5 264.412,-94.5 258.412,-100.5 252.412,-100.5 252.412,-100.5 141.029,-100.5 141.029,-100.5 135.029,-100.5 129.029,-94.5 129.029,-88.5 129.029,-88.5 129.029,-12.5 129.029,-12.5 129.029,-6.5 135.029,-0.5 141.029,-0.5"/>
<text text-anchor="middle" x="196.72" y="-85.3" font-family="Times,serif" font-size="14.00">Source</text>
<polyline fill="none" stroke="black" points="129.029,-78.5 264.412,-78.5 "/>
<text text-anchor="start" x="137.029" y="-63.3" font-family="Times,serif" font-size="14.00">_id :BSON::ObjectId</text>
<text text-anchor="start" x="137.029" y="-49.3" font-family="Times,serif" font-size="14.00">eposode :Integer</text>
<text text-anchor="start" x="137.029" y="-35.3" font-family="Times,serif" font-size="14.00">link :String</text>
<text text-anchor="start" x="137.029" y="-21.3" font-family="Times,serif" font-size="14.00">media_id :Object</text>
<text text-anchor="start" x="137.029" y="-7.3" font-family="Times,serif" font-size="14.00">season :Integer</text>
</g>
<!-- Media&#45;&gt;Source -->
<g id="edge1" class="edge"><title>Media&#45;&gt;Source</title>
<path fill="none" stroke="#e0d533" d="M238.263,-130.042C234.801,-123.497 231.175,-116.642 227.569,-109.824"/>
<ellipse fill="none" stroke="#e0d533" cx="240.166" cy="-133.641" rx="4.00002" ry="4.00002"/>
<polygon fill="#e0d533" stroke="#e0d533" points="227.356,-109.421 226.659,-98.4778 225.019,-105.002 222.681,-100.582 222.681,-100.582 222.681,-100.582 225.019,-105.002 218.703,-102.686 227.356,-109.421 227.356,-109.421"/>
</g>
<!-- Synonim -->
<g id="node5" class="node"><title>Synonim</title>
<ellipse fill="none" stroke="black" cx="324.72" cy="-50.5" rx="42.0956" ry="18"/>
<text text-anchor="middle" x="324.72" y="-46.3" font-family="Times,serif" font-size="14.00">Synonim</text>
</g>
<!-- Media&#45;&gt;Synonim -->
<g id="edge2" class="edge"><title>Media&#45;&gt;Synonim</title>
<path fill="none" stroke="#1bed3a" d="M283.154,-130.086C292.497,-112.422 303.039,-92.4912 311.168,-77.1217"/>
<ellipse fill="none" stroke="#1bed3a" cx="281.274" cy="-133.641" rx="4.00002" ry="4.00002"/>
<polygon fill="#1bed3a" stroke="#1bed3a" points="311.21,-77.0421 319.864,-70.3065 313.548,-72.6223 315.886,-68.2024 315.886,-68.2024 315.886,-68.2024 313.548,-72.6223 311.908,-66.0984 311.21,-77.0421 311.21,-77.0421"/>
</g>
<!-- Synonym -->
<g id="node4" class="node"><title>Synonym</title>
<path fill="none" stroke="black" d="M358.029,-137.5C358.029,-137.5 469.412,-137.5 469.412,-137.5 475.412,-137.5 481.412,-143.5 481.412,-149.5 481.412,-149.5 481.412,-197.5 481.412,-197.5 481.412,-203.5 475.412,-209.5 469.412,-209.5 469.412,-209.5 358.029,-209.5 358.029,-209.5 352.029,-209.5 346.029,-203.5 346.029,-197.5 346.029,-197.5 346.029,-149.5 346.029,-149.5 346.029,-143.5 352.029,-137.5 358.029,-137.5"/>
<text text-anchor="middle" x="413.72" y="-194.3" font-family="Times,serif" font-size="14.00">Synonym</text>
<polyline fill="none" stroke="black" points="346.029,-187.5 481.412,-187.5 "/>
<text text-anchor="start" x="354.029" y="-172.3" font-family="Times,serif" font-size="14.00">_id :BSON::ObjectId</text>
<text text-anchor="start" x="354.029" y="-158.3" font-family="Times,serif" font-size="14.00">media_id :Object</text>
<text text-anchor="start" x="354.029" y="-144.3" font-family="Times,serif" font-size="14.00">name :String</text>
</g>
</g>
</svg>
