<?xml version="1.0" encoding="UTF-8" standalone="no"?>
<!DOCTYPE svg PUBLIC "-//W3C//DTD SVG 1.1//EN"
 "http://www.w3.org/Graphics/SVG/1.1/DTD/svg11.dtd">
<!-- Generated by graphviz version 2.38.0 (20140413.2041)
 -->
<!-- Title: models_diagram Pages: 1 -->
<svg width="373pt" height="140pt"
 viewBox="0.00 0.00 372.73 140.00" xmlns="http://www.w3.org/2000/svg" xmlns:xlink="http://www.w3.org/1999/xlink">
<g id="graph0" class="graph" transform="scale(1 1) rotate(0) translate(4 136)">
<title>models_diagram</title>
<polygon fill="none" stroke="none" points="-4,4 -4,-136 368.733,-136 368.733,4 -4,4"/>
<!-- _diagram_info -->
<g id="node1" class="node"><title>_diagram_info</title>
<text text-anchor="start" x="8" y="-117.6" font-family="Times,serif" font-size="13.00">Models diagram</text>
<text text-anchor="start" x="8" y="-104.6" font-family="Times,serif" font-size="13.00">Date: Feb 29 2016 &#45; 14:18</text>
<text text-anchor="start" x="8" y="-91.6" font-family="Times,serif" font-size="13.00">Generated by RailRoady 1.4.2</text>
<text text-anchor="start" x="8" y="-78.6" font-family="Times,serif" font-size="13.00">http://railroady.prestonlee.com</text>
</g>
<!-- Media -->
<g id="node2" class="node"><title>Media</title>
<ellipse fill="none" stroke="black" cx="225.72" cy="-102" rx="32.8994" ry="18"/>
<text text-anchor="middle" x="225.72" y="-97.8" font-family="Times,serif" font-size="14.00">Media</text>
</g>
<!-- Source -->
<g id="node3" class="node"><title>Source</title>
<ellipse fill="none" stroke="black" cx="177.72" cy="-18" rx="34.8285" ry="18"/>
<text text-anchor="middle" x="177.72" y="-13.8" font-family="Times,serif" font-size="14.00">Source</text>
</g>
<!-- Media&#45;&gt;Source -->
<g id="edge1" class="edge"><title>Media&#45;&gt;Source</title>
<path fill="none" stroke="#fd49e9" d="M211.866,-77.3329C205.811,-66.9883 198.699,-54.8393 192.538,-44.3143"/>
<ellipse fill="none" stroke="#fd49e9" cx="213.986" cy="-80.954" rx="4.00002" ry="4.00002"/>
<polygon fill="#fd49e9" stroke="#fd49e9" points="192.471,-44.1994 191.303,-33.2959 189.945,-39.8843 187.419,-35.5692 187.419,-35.5692 187.419,-35.5692 189.945,-39.8843 183.536,-37.8426 192.471,-44.1994 192.471,-44.1994"/>
</g>
<!-- Synonim -->
<g id="node5" class="node"><title>Synonim</title>
<ellipse fill="none" stroke="black" cx="272.72" cy="-18" rx="42.0956" ry="18"/>
<text text-anchor="middle" x="272.72" y="-13.8" font-family="Times,serif" font-size="14.00">Synonim</text>
</g>
<!-- Media&#45;&gt;Synonim -->
<g id="edge2" class="edge"><title>Media&#45;&gt;Synonim</title>
<path fill="none" stroke="#990e03" d="M239.285,-77.3329C245.215,-66.9883 252.178,-54.8393 258.211,-44.3143"/>
<ellipse fill="none" stroke="#990e03" cx="237.221" cy="-80.9357" rx="4.00002" ry="4.00002"/>
<polygon fill="#990e03" stroke="#990e03" points="258.25,-44.2452 267.127,-37.807 260.737,-39.9072 263.223,-35.5692 263.223,-35.5692 263.223,-35.5692 260.737,-39.9072 259.319,-33.3315 258.25,-44.2452 258.25,-44.2452"/>
</g>
<!-- Synonym -->
<g id="node4" class="node"><title>Synonym</title>
<ellipse fill="none" stroke="black" cx="320.72" cy="-102" rx="44.0251" ry="18"/>
<text text-anchor="middle" x="320.72" y="-97.8" font-family="Times,serif" font-size="14.00">Synonym</text>
</g>
</g>
</svg>
